<svg width="46" height="46" viewBox="0 0 46 46" fill="none" xmlns="http://www.w3.org/2000/svg">
<circle cx="23" cy="23" r="23" fill="#8AA6AA"/>
<path d="M29.6952 28.9956V30.6675C29.6952 31.1922 29.4866 31.6955 29.1154 32.0665C28.7441 32.4376 28.2406 32.646 27.7155 32.646H17.8171C17.292 32.646 16.7885 32.4376 16.4172 32.0665C16.046 31.6955 15.8374 31.1922 15.8374 30.6675V27.0072C15.3821 26.8291 14.7981 26.7104 13.8577 26.7104C13.5952 26.7104 13.3434 26.6062 13.1578 26.4206C12.9722 26.2351 12.8679 25.9835 12.8679 25.7211C12.8679 25.4587 12.9722 25.2071 13.1578 25.0216C13.3434 24.8361 13.5952 24.7318 13.8577 24.7318C14.6694 24.7318 15.3128 24.811 15.8374 24.9396V23.0501C15.3821 22.872 14.7981 22.7533 13.8577 22.7533C13.5952 22.7533 13.3434 22.6491 13.1578 22.4635C12.9722 22.278 12.8679 22.0264 12.8679 21.764C12.8679 21.5017 12.9722 21.25 13.1578 21.0645C13.3434 20.879 13.5952 20.7747 13.8577 20.7747C14.6694 20.7747 15.3128 20.8539 15.8374 20.9825V19.093C15.3821 18.9149 14.7981 18.7962 13.8577 18.7962C13.5952 18.7962 13.3434 18.692 13.1578 18.5064C12.9722 18.3209 12.8679 18.0693 12.8679 17.8069C12.8679 17.5446 12.9722 17.2929 13.1578 17.1074C13.3434 16.9219 13.5952 16.8177 13.8577 16.8177C14.6694 16.8177 15.3128 16.8968 15.8374 17.0254V14.8391C15.8374 14.3144 16.046 13.8111 16.4172 13.4401C16.7885 13.069 17.292 12.8606 17.8171 12.8606H27.7155C28.2406 12.8606 28.7441 13.069 29.1154 13.4401C29.4866 13.8111 29.6952 14.3144 29.6952 14.8391V16.9759C31.4571 17.2826 32.2094 17.9355 32.3777 18.0938C32.7637 18.4796 32.7637 19.1128 32.3777 19.4986C31.9917 19.8844 31.4769 19.8745 30.9721 19.4986C30.9721 19.4986 29.9427 18.7962 27.7155 18.7962C26.4683 18.7962 25.6468 19.2018 24.6965 19.6865C23.6671 20.1911 22.509 20.7747 20.7866 20.7747C20.4303 20.7747 20.1036 20.7747 19.7968 20.7352V18.7467C20.0937 18.7962 20.4204 18.7962 20.7866 18.7962C22.0338 18.7962 22.8554 18.3906 23.8056 17.9157C24.8351 17.4013 26.0031 16.8177 27.7155 16.8177V14.8391H17.8171V30.6675H27.7155V28.6889C29.2003 28.6889 29.6655 28.9758 29.6952 28.9956ZM27.7155 20.7747C26.0031 20.7747 24.8351 21.3584 23.8056 21.8728C22.8554 22.3477 22.0338 22.7533 20.7866 22.7533C20.4204 22.7533 20.0937 22.7533 19.7968 22.7038V24.6923C20.1036 24.7318 20.4303 24.7318 20.7866 24.7318C22.509 24.7318 23.6671 24.1482 24.6965 23.6436C25.6468 23.1688 26.4683 22.7533 27.7155 22.7533C29.9427 22.7533 30.9721 23.4557 30.9721 23.4557C31.4769 23.8415 31.9917 23.8415 32.3777 23.4557C32.7637 23.0699 32.7637 22.4466 32.3777 22.0509C32.1698 21.8432 30.9325 20.7747 27.7155 20.7747ZM27.7155 24.7318C26.0031 24.7318 24.8351 25.3155 23.8056 25.8299C22.8554 26.3048 22.0338 26.7104 20.7866 26.7104C20.4204 26.7104 20.0937 26.7104 19.7968 26.6609V28.6494C20.1036 28.6889 20.4303 28.6889 20.7866 28.6889C22.509 28.6889 23.6671 28.1053 24.6965 27.6007C25.6468 27.1259 26.4683 26.7104 27.7155 26.7104C29.9427 26.7104 30.9721 27.4128 30.9721 27.4128C31.4769 27.7986 31.9917 27.7986 32.3777 27.4128C32.7637 27.027 32.7637 26.4037 32.3777 26.008C32.1698 25.8003 30.9325 24.7318 27.7155 24.7318Z" fill="white"/>
</svg>
