<svg width="46" height="46" viewBox="0 0 46 46" fill="none" xmlns="http://www.w3.org/2000/svg">
<circle cx="23" cy="23" r="23" fill="#8AA6AA"/>
<path d="M25.2529 20.4772C23.7681 18.8053 23.8671 14.957 23.8671 14.957H24.8569V12.9785H20.8976V14.957H21.8874C21.8874 14.957 21.9864 18.8053 20.5016 20.4772C20.3146 20.6604 20.1658 20.8789 20.0638 21.12C19.9619 21.3612 19.9088 21.6201 19.9077 21.8819V30.7854C19.9077 31.3101 20.1163 31.8134 20.4876 32.1844C20.8588 32.5555 21.3624 32.7639 21.8874 32.7639H23.8671C24.3921 32.7639 24.8957 32.5555 25.2669 32.1844C25.6382 31.8134 25.8468 31.3101 25.8468 30.7854V21.8819C25.8457 21.6201 25.7926 21.3612 25.6907 21.12C25.5887 20.8789 25.4399 20.6604 25.2529 20.4772ZM23.8671 30.7854H21.8874V21.8819L21.9864 21.7929C22.3444 21.3699 22.6441 20.9007 22.8772 20.398C23.1104 20.9007 23.4101 21.3699 23.7681 21.7929L23.8671 21.8819V30.7854Z" fill="white"/>
</svg>
