<svg width="52" height="52" viewBox="0 0 52 52" fill="none" xmlns="http://www.w3.org/2000/svg">
<path d="M6.50033 8.66663H36.8337V17.3333H43.3337L49.8337 26V36.8333H45.5003C45.5003 38.5572 44.8155 40.2105 43.5965 41.4295C42.3775 42.6485 40.7242 43.3333 39.0003 43.3333C37.2764 43.3333 35.6231 42.6485 34.4041 41.4295C33.1851 40.2105 32.5003 38.5572 32.5003 36.8333H19.5003C19.5003 38.5572 18.8155 40.2105 17.5965 41.4295C16.3775 42.6485 14.7242 43.3333 13.0003 43.3333C11.2764 43.3333 9.62312 42.6485 8.40413 41.4295C7.18514 40.2105 6.50033 38.5572 6.50033 36.8333H2.16699V13C2.16699 11.8507 2.62354 10.7485 3.4362 9.93583C4.24885 9.12317 5.35105 8.66663 6.50033 8.66663ZM36.8337 20.5833V26H46.5187L42.2503 20.5833H36.8337ZM13.0003 33.5833C12.1384 33.5833 11.3117 33.9257 10.7022 34.5352C10.0927 35.1447 9.75032 35.9713 9.75032 36.8333C9.75032 37.6952 10.0927 38.5219 10.7022 39.1314C11.3117 39.7409 12.1384 40.0833 13.0003 40.0833C13.8623 40.0833 14.6889 39.7409 15.2984 39.1314C15.9079 38.5219 16.2503 37.6952 16.2503 36.8333C16.2503 35.9713 15.9079 35.1447 15.2984 34.5352C14.6889 33.9257 13.8623 33.5833 13.0003 33.5833ZM39.0003 33.5833C38.1384 33.5833 37.3117 33.9257 36.7022 34.5352C36.0927 35.1447 35.7503 35.9713 35.7503 36.8333C35.7503 37.6952 36.0927 38.5219 36.7022 39.1314C37.3117 39.7409 38.1384 40.0833 39.0003 40.0833C39.8623 40.0833 40.6889 39.7409 41.2984 39.1314C41.9079 38.5219 42.2503 37.6952 42.2503 36.8333C42.2503 35.9713 41.9079 35.1447 41.2984 34.5352C40.6889 33.9257 39.8623 33.5833 39.0003 33.5833ZM17.3337 30.3333L30.3337 17.3333L27.2787 14.2566L17.3337 24.2016L12.8053 19.6733L9.75032 22.75L17.3337 30.3333Z" fill="#8AA6AA"/>
</svg>
