<svg width="30" height="30" viewBox="0 0 30 30" fill="none" xmlns="http://www.w3.org/2000/svg">
<circle cx="15" cy="15" r="15" fill="#8AA6AA"/>
<g opacity="0.8">
<path d="M15 22C15.3978 22 15.7794 22.158 16.0607 22.4393C16.342 22.7206 16.5 23.1022 16.5 23.5C16.5 23.8978 16.342 24.2794 16.0607 24.5607C15.7794 24.842 15.3978 25 15 25C14.6022 25 14.2206 24.842 13.9393 24.5607C13.658 24.2794 13.5 23.8978 13.5 23.5C13.5 23.1022 13.658 22.7206 13.9393 22.4393C14.2206 22.158 14.6022 22 15 22ZM15 5C16.5913 5 18.1174 5.63214 19.2426 6.75736C20.3679 7.88258 21 9.4087 21 11C21 13.165 20.247 14.29 18.326 15.923C16.399 17.56 16 18.297 16 20H14C14 17.526 14.787 16.305 17.031 14.399C18.548 13.11 19 12.434 19 11C19 9.93913 18.5786 8.92172 17.8284 8.17157C17.0783 7.42143 16.0609 7 15 7C13.9391 7 12.9217 7.42143 12.1716 8.17157C11.4214 8.92172 11 9.93913 11 11V12H9V11C9 9.4087 9.63214 7.88258 10.7574 6.75736C11.8826 5.63214 13.4087 5 15 5Z" fill="#111111"/>
</g>
</svg>
