<svg width="32" height="32" viewBox="0 0 32 32" fill="none" xmlns="http://www.w3.org/2000/svg">
<path d="M8.00033 9.33325H14.667C15.0206 9.33325 15.3598 9.47373 15.6098 9.72378C15.8598 9.97382 16.0003 10.313 16.0003 10.6666C16.0003 11.0202 15.8598 11.3593 15.6098 11.6094C15.3598 11.8594 15.0206 11.9999 14.667 11.9999H8.00033C7.6467 11.9999 7.30756 11.8594 7.05752 11.6094C6.80747 11.3593 6.66699 11.0202 6.66699 10.6666C6.66699 10.313 6.80747 9.97382 7.05752 9.72378C7.30756 9.47373 7.6467 9.33325 8.00033 9.33325ZM17.3337 19.9999H24.0003C24.3539 19.9999 24.6931 20.1404 24.9431 20.3904C25.1932 20.6405 25.3337 20.9796 25.3337 21.3333C25.3337 21.6869 25.1932 22.026 24.9431 22.2761C24.6931 22.5261 24.3539 22.6666 24.0003 22.6666H17.3337C16.98 22.6666 16.6409 22.5261 16.3908 22.2761C16.1408 22.026 16.0003 21.6869 16.0003 21.3333C16.0003 20.9796 16.1408 20.6405 16.3908 20.3904C16.6409 20.1404 16.98 19.9999 17.3337 19.9999ZM8.00033 14.6666H24.0003C24.3539 14.6666 24.6931 14.8071 24.9431 15.0571C25.1932 15.3072 25.3337 15.6463 25.3337 15.9999C25.3337 16.3535 25.1932 16.6927 24.9431 16.9427C24.6931 17.1928 24.3539 17.3333 24.0003 17.3333H8.00033C7.6467 17.3333 7.30756 17.1928 7.05752 16.9427C6.80747 16.6927 6.66699 16.3535 6.66699 15.9999C6.66699 15.6463 6.80747 15.3072 7.05752 15.0571C7.30756 14.8071 7.6467 14.6666 8.00033 14.6666Z" fill="white"/>
</svg>
