<svg width="454" height="316" viewBox="0 0 454 316" fill="none" xmlns="http://www.w3.org/2000/svg">
<mask id="mask0_2704_6636" style="mask-type:alpha" maskUnits="userSpaceOnUse" x="0" y="17" width="452" height="281">
<path d="M12.16 60H2.56V17.12H24.96C34.88 17.12 41.28 22.752 41.28 32.608C41.28 42.464 34.88 48.16 24.96 48.16H12.16V60ZM23.936 25.76H12.16V39.52H23.936C29.248 39.52 31.744 37.984 31.744 32.608C31.744 27.36 29.248 25.76 23.936 25.76ZM54.285 60H44.685V27.936H53.581V36.448H54.157C55.053 31.264 58.445 27.296 64.909 27.296C72.077 27.296 75.021 32.224 75.021 38.496V43.808H65.421V40.48C65.421 36.96 64.013 35.424 60.109 35.424C55.821 35.424 54.285 37.408 54.285 41.44V60ZM95.5855 60.64C84.6415 60.64 77.2815 54.112 77.2815 44C77.2815 33.76 84.6415 27.296 95.5855 27.296C106.53 27.296 113.89 33.76 113.89 44C113.89 54.112 106.53 60.64 95.5855 60.64ZM95.5855 52.128C102.05 52.128 104.354 49.632 104.354 44C104.354 38.368 102.05 35.744 95.5855 35.744C89.0575 35.744 86.8175 38.368 86.8175 44C86.8175 49.632 89.0575 52.128 95.5855 52.128ZM141.682 60H129.842L115.25 27.936H125.938L135.538 50.656H136.178L145.842 27.936H156.338L141.682 60ZM168.473 24.672H158.873V17.12H168.473V24.672ZM168.473 60H158.873V27.936H168.473V60ZM187.833 60.64C177.85 60.64 172.346 54.112 172.346 44C172.346 33.76 177.786 27.296 187.322 27.296C194.938 27.296 198.842 31.072 199.93 36.448H200.506V17.12H210.106V60H201.146V51.104H200.634C199.418 57.44 195.194 60.64 187.833 60.64ZM182.074 44C182.074 49.824 184.954 51.872 191.098 51.872C197.178 51.872 200.506 49.76 200.506 44.192V43.68C200.506 38.112 197.242 36.064 191.098 36.064C184.954 36.064 182.074 38.112 182.074 44ZM224.785 24.672H215.185V17.12H224.785V24.672ZM224.785 60H215.185V27.936H224.785V60ZM239.41 60H229.81V27.936H238.706V37.792H239.282C240.114 32.416 243.954 27.296 252.338 27.296C261.106 27.296 265.266 32.928 265.266 40.032V60H255.666V43.232C255.666 38.112 253.554 35.936 247.666 35.936C241.586 35.936 239.41 38.368 239.41 43.808V60ZM284.203 56.736C274.667 56.736 269.163 51.04 269.163 42.016C269.163 33.056 274.987 27.296 284.587 27.296C291.115 27.296 295.787 30.112 296.811 35.68H297.323V27.936H306.283V55.328C306.283 66.528 299.499 71.52 288.043 71.52C277.675 71.52 271.147 66.912 271.147 58.848H280.747C280.747 62.432 282.155 63.52 288.683 63.52C294.827 63.52 296.683 62.24 296.683 55.968V48.736H296.171C295.147 53.472 291.371 56.736 284.203 56.736ZM278.827 42.016C278.827 46.752 281.515 48.48 287.531 48.48C293.675 48.48 296.683 46.752 296.683 42.336V41.632C296.683 37.28 293.611 35.616 287.659 35.616C281.515 35.616 278.827 37.28 278.827 42.016ZM12.16 139H2.56V96.12H12.16V139ZM26.785 139H17.185V106.936H26.081V116.792H26.657C27.489 111.416 31.329 106.296 39.713 106.296C48.481 106.296 52.641 111.928 52.641 119.032V139H43.041V122.232C43.041 117.112 40.929 114.936 35.041 114.936C28.961 114.936 26.785 117.368 26.785 122.808V139ZM71.8335 139.64C61.8495 139.64 56.3455 133.112 56.3455 123C56.3455 112.76 61.7855 106.296 71.3215 106.296C78.9375 106.296 82.8415 110.072 83.9295 115.448H84.5055V96.12H94.1055V139H85.1455V130.104H84.6335C83.4175 136.44 79.1935 139.64 71.8335 139.64ZM66.0735 123C66.0735 128.824 68.9535 130.872 75.0975 130.872C81.1775 130.872 84.5055 128.76 84.5055 123.192V122.68C84.5055 117.112 81.2415 115.064 75.0975 115.064C68.9535 115.064 66.0735 117.112 66.0735 123ZM112.433 139.64C103.409 139.64 99.121 134.072 99.121 126.904V106.936H108.721V123.704C108.721 128.888 110.897 131.064 116.977 131.064C123.249 131.064 125.489 128.632 125.489 123.192V106.936H135.089V139H126.129V129.208H125.617C124.785 134.584 120.881 139.64 112.433 139.64ZM156.19 139.64C145.374 139.64 139.422 135.416 139.422 127.992V127.8H149.022V128.376C149.022 131.256 150.814 132.024 156.253 132.024C161.374 132.024 162.59 131.192 162.59 129.272C162.59 127.48 161.63 126.968 157.854 126.456L148.83 125.368C142.43 124.664 138.846 121.784 138.846 116.408C138.846 110.776 143.646 106.296 154.654 106.296C165.15 106.296 171.102 110.264 171.102 118.072V118.264H161.502V117.88C161.502 115.256 160.222 113.912 154.333 113.912C149.534 113.912 148.318 114.744 148.318 116.792C148.318 118.456 149.214 119.16 153.438 119.672L160.286 120.504C168.862 121.464 172.062 124.344 172.062 129.656C172.062 135.672 166.11 139.64 156.19 139.64ZM198.527 139H190.591C183.103 139 178.559 135.48 178.559 127.416V114.872H173.503V106.936H178.559V100.728H188.159V106.936H198.527V114.872H188.159V126.328C188.159 129.528 189.375 130.36 192.767 130.36H198.527V139ZM211.723 139H202.123V106.936H211.019V115.448H211.595C212.491 110.264 215.883 106.296 222.347 106.296C229.515 106.296 232.458 111.224 232.458 117.496V122.808H222.859V119.48C222.859 115.96 221.451 114.424 217.547 114.424C213.259 114.424 211.723 116.408 211.723 120.44V139ZM242.079 149.88H236.831V141.176H244.703C247.071 141.176 248.095 140.536 248.735 139.128L233.055 106.936H243.935L250.719 121.592L253.407 129.144H254.047L256.607 121.528L262.687 106.936H273.375L257.503 141.304C254.431 148.024 250.143 149.88 242.079 149.88ZM22.016 218.64C9.024 218.64 1.728 213.52 1.728 203.536V203.152H11.328V204.304C11.328 208.272 13.312 209.872 22.016 209.872C29.696 209.872 31.488 208.72 31.488 205.84C31.488 203.216 30.016 202.256 25.6 201.488L13.568 199.76C5.888 198.544 1.344 194.704 1.344 187.728C1.344 181.264 6.592 174.48 20.992 174.48C34.176 174.48 40.32 180.56 40.32 189.584V189.968H30.656V189.072C30.656 184.976 28.544 183.248 20.032 183.248C13.12 183.248 11.008 184.592 11.008 187.344C11.008 189.84 12.416 190.736 16 191.376L28.032 193.296C37.632 194.832 41.088 199.504 41.088 205.392C41.088 212.368 35.648 218.64 22.016 218.64ZM62.0855 218.64C51.1415 218.64 43.7815 212.112 43.7815 202C43.7815 191.76 51.1415 185.296 62.0855 185.296C73.0295 185.296 80.3895 191.76 80.3895 202C80.3895 212.112 73.0295 218.64 62.0855 218.64ZM62.0855 210.128C68.5495 210.128 70.8535 207.632 70.8535 202C70.8535 196.368 68.5495 193.744 62.0855 193.744C55.5575 193.744 53.3175 196.368 53.3175 202C53.3175 207.632 55.5575 210.128 62.0855 210.128ZM93.91 218H84.31V175.12H93.91V218ZM112.183 218.64C103.159 218.64 98.871 213.072 98.871 205.904V185.936H108.471V202.704C108.471 207.888 110.647 210.064 116.727 210.064C122.999 210.064 125.239 207.632 125.239 202.192V185.936H134.839V218H125.879V208.208H125.367C124.535 213.584 120.631 218.64 112.183 218.64ZM162.34 218H154.404C146.916 218 142.372 214.48 142.372 206.416V193.872H137.316V185.936H142.372V179.728H151.972V185.936H162.34V193.872H151.972V205.328C151.972 208.528 153.188 209.36 156.58 209.36H162.34V218ZM175.535 182.672H165.935V175.12H175.535V182.672ZM175.535 218H165.935V185.936H175.535V218ZM197.648 218.64C186.704 218.64 179.344 212.112 179.344 202C179.344 191.76 186.704 185.296 197.648 185.296C208.592 185.296 215.952 191.76 215.952 202C215.952 212.112 208.592 218.64 197.648 218.64ZM197.648 210.128C204.112 210.128 206.416 207.632 206.416 202C206.416 196.368 204.112 193.744 197.648 193.744C191.12 193.744 188.88 196.368 188.88 202C188.88 207.632 191.12 210.128 197.648 210.128ZM229.473 218H219.873V185.936H228.769V195.792H229.345C230.177 190.416 234.017 185.296 242.401 185.296C251.169 185.296 255.329 190.928 255.329 198.032V218H245.729V201.232C245.729 196.112 243.617 193.936 237.729 193.936C231.649 193.936 229.473 196.368 229.473 201.808V218ZM276.377 218.64C265.561 218.64 259.609 214.416 259.609 206.992V206.8H269.209V207.376C269.209 210.256 271.001 211.024 276.441 211.024C281.561 211.024 282.777 210.192 282.777 208.272C282.777 206.48 281.817 205.968 278.041 205.456L269.017 204.368C262.617 203.664 259.033 200.784 259.033 195.408C259.033 189.776 263.833 185.296 274.841 185.296C285.337 185.296 291.289 189.264 291.289 197.072V197.264H281.689V196.88C281.689 194.256 280.409 192.912 274.521 192.912C269.721 192.912 268.505 193.744 268.505 195.792C268.505 197.456 269.401 198.16 273.625 198.672L280.473 199.504C289.049 200.464 292.249 203.344 292.249 208.656C292.249 214.672 286.297 218.64 276.377 218.64ZM14.72 297H5.12V272.872H0.576V264.936H5.312C6.336 258.472 11.968 254.12 21.824 254.12H24.64V261.096H20.288C16.064 261.096 14.08 261.8 14.336 264.936H24.64V272.872H14.72V297ZM37.41 297H27.81V264.936H36.706V273.448H37.282C38.178 268.264 41.57 264.296 48.034 264.296C55.202 264.296 58.146 269.224 58.146 275.496V280.808H48.546V277.48C48.546 273.96 47.138 272.424 43.234 272.424C38.946 272.424 37.41 274.408 37.41 278.44V297ZM78.7105 297.64C67.7665 297.64 60.4065 291.112 60.4065 281C60.4065 270.76 67.7665 264.296 78.7105 264.296C89.6545 264.296 97.0145 270.76 97.0145 281C97.0145 291.112 89.6545 297.64 78.7105 297.64ZM78.7105 289.128C85.1745 289.128 87.4785 286.632 87.4785 281C87.4785 275.368 85.1745 272.744 78.7105 272.744C72.1825 272.744 69.9425 275.368 69.9425 281C69.9425 286.632 72.1825 289.128 78.7105 289.128ZM110.535 297H100.935V264.936H109.831V274.664H110.343C111.111 269.288 114.311 264.296 122.375 264.296C129.799 264.296 133.575 268.84 134.279 274.792H134.855C135.623 269.352 138.887 264.296 147.143 264.296C155.399 264.296 159.431 269.736 159.431 277.032V297H149.831V280.232C149.831 274.92 147.975 272.936 142.471 272.936C136.647 272.936 134.983 275.24 134.983 280.808V297H125.383V280.232C125.383 274.92 123.527 272.936 118.023 272.936C112.199 272.936 110.535 275.24 110.535 280.808V297ZM196.777 297H188.841C181.353 297 176.809 293.48 176.809 285.416V272.872H171.753V264.936H176.809V258.728H186.409V264.936H196.777V272.872H186.409V284.328C186.409 287.528 187.625 288.36 191.017 288.36H196.777V297ZM209.973 297H200.373V254.12H209.973V274.728H210.485C211.509 269.288 215.285 264.296 223.477 264.296C232.117 264.296 236.341 269.928 236.341 277.352V297H226.741V280.232C226.741 274.856 224.437 272.936 218.421 272.936C211.957 272.936 209.973 275.56 209.973 280.936V297ZM258.209 297.64C247.521 297.64 240.225 292.392 240.225 281C240.225 270.76 247.457 264.296 258.017 264.296C268.513 264.296 275.489 269.8 275.489 279.848C275.489 281 275.361 281.832 275.233 282.92H249.121C249.377 287.848 251.681 289.96 257.889 289.96C263.585 289.96 265.569 288.488 265.569 285.736V285.096H275.169V285.8C275.169 292.776 268.385 297.64 258.209 297.64ZM257.825 271.784C252.129 271.784 249.697 273.704 249.249 277.864H266.273C266.017 273.64 263.457 271.784 257.825 271.784ZM308.891 297.64C295.899 297.64 288.603 292.52 288.603 282.536V282.152H298.203V283.304C298.203 287.272 300.187 288.872 308.891 288.872C316.571 288.872 318.363 287.72 318.363 284.84C318.363 282.216 316.891 281.256 312.475 280.488L300.443 278.76C292.763 277.544 288.219 273.704 288.219 266.728C288.219 260.264 293.467 253.48 307.867 253.48C321.051 253.48 327.195 259.56 327.195 268.584V268.968H317.531V268.072C317.531 263.976 315.419 262.248 306.907 262.248C299.995 262.248 297.883 263.592 297.883 266.344C297.883 268.84 299.291 269.736 302.875 270.376L314.907 272.296C324.507 273.832 327.963 278.504 327.963 284.392C327.963 291.368 322.523 297.64 308.891 297.64ZM354.465 297H346.529C339.041 297 334.497 293.48 334.497 285.416V272.872H329.441V264.936H334.497V258.728H344.097V264.936H354.465V272.872H344.097V284.328C344.097 287.528 345.312 288.36 348.705 288.36H354.465V297ZM367.916 297.64C361.004 297.64 356.844 294.44 356.844 289.064C356.844 284.328 360.364 281.384 367.212 280.68L380.972 279.272V278.056C380.972 273.896 379.116 272.744 373.996 272.744C369.132 272.744 367.148 274.024 367.148 277.672V277.928H357.484V277.736C357.484 269.8 364.14 264.296 374.7 264.296C385.388 264.296 390.444 269.8 390.444 278.184V297H381.484V289.64H380.972C379.5 294.632 375.02 297.64 367.916 297.64ZM366.508 288.424C366.508 290.152 367.852 290.856 370.668 290.856C377.196 290.856 380.716 289.32 380.972 284.776L369.836 286.056C367.532 286.248 366.508 286.888 366.508 288.424ZM404.91 297H395.31V264.936H404.206V273.448H404.782C405.678 268.264 409.07 264.296 415.534 264.296C422.702 264.296 425.646 269.224 425.646 275.496V280.808H416.046V277.48C416.046 273.96 414.638 272.424 410.734 272.424C406.446 272.424 404.91 274.408 404.91 278.44V297ZM451.715 297H443.779C436.291 297 431.747 293.48 431.747 285.416V272.872H426.691V264.936H431.747V258.728H441.347V264.936H451.715V272.872H441.347V284.328C441.347 287.528 442.562 288.36 445.955 288.36H451.715V297Z" fill="black"/>
</mask>
<g mask="url(#mask0_2704_6636)">
<circle cx="117.5" cy="189.5" r="146.5" fill="#8AA6AA"/>
</g>
</svg>
